<?xml version="1.0" encoding="UTF-8" standalone="no"?>
<!DOCTYPE svg PUBLIC "-//W3C//DTD SVG 1.1//EN" "http://www.w3.org/Graphics/SVG/1.1/DTD/svg11.dtd">
<svg xmlns="http://www.w3.org/2000/svg" version="1.1" viewBox="0 0 1920 513">
<g stroke-width="2.00" fill="none" stroke-linecap="butt">
<path stroke="#ffffff" vector-effect="non-scaling-stroke" d="
  M 601.29 316.25
  Q 600.53 346.71 601.35 377.25"
/>
<path stroke="#f2f0ef" stroke-opacity="0.722" vector-effect="non-scaling-stroke" d="
  M 1480.75 445.71
  L 1486.00 445.71"
/>
</g>
<path fill="#ffffff" d="
  M 1769.56 0.00
  L 1772.06 0.00
  Q 1790.72 2.88 1800.94 4.81
  C 1839.36 12.06 1878.09 26.94 1909.65 50.87
  C 1915.83 55.56 1923.05 62.03 1918.19 70.69
  Q 1884.81 130.07 1860.56 177.56
  C 1855.49 187.50 1851.56 196.23 1838.76 195.16
  Q 1777.64 190.04 1727.80 155.60
  C 1718.05 148.85 1711.97 144.76 1715.81 132.56
  Q 1732.08 80.88 1747.82 29.02
  Q 1749.23 24.34 1751.23 19.39
  A 0.49 0.49 30.9 0 1 1751.99 19.20
  C 1795.00 55.48 1846.45 72.52 1901.75 77.46
  A 1.02 0.93 20.6 0 0 1902.58 77.13
  Q 1904.41 74.91 1902.26 74.03
  C 1899.46 72.86 1897.05 72.40 1893.50 71.75
  Q 1823.80 59.04 1764.91 19.84
  C 1760.65 17.01 1757.28 9.96 1754.52 5.37
  A 0.51 0.50 64.2 0 1 1754.77 4.63
  Q 1762.51 1.65 1769.56 0.00
  Z"
/>
<path fill="#ffffff" d="
  M 1888.35 243.50
  Q 1887.16 245.17 1885.33 246.11
  C 1873.65 252.13 1853.11 250.03 1840.53 247.85
  C 1787.89 238.71 1739.92 220.06 1692.69 195.56
  C 1674.22 185.98 1656.40 171.11 1648.34 151.76
  A 0.93 0.93 -23.9 0 1 1648.80 150.57
  C 1664.87 142.87 1682.66 142.91 1700.11 146.76
  Q 1704.04 147.62 1702.69 151.42
  C 1699.41 160.67 1696.41 170.11 1705.81 177.19
  Q 1711.01 181.10 1715.56 183.69
  Q 1736.80 195.78 1759.21 205.45
  C 1782.03 215.30 1806.85 224.44 1832.37 223.85
  C 1842.39 223.61 1849.57 220.97 1851.67 210.65
  C 1852.72 205.47 1855.79 203.65 1860.56 207.19
  Q 1870.49 214.55 1879.84 222.63
  C 1885.27 227.31 1893.84 235.86 1888.35 243.50
  Z"
/>
<path fill="#ffffff" d="
  M 1668.43 388.34
  C 1635.30 382.62 1607.92 357.89 1603.75 323.75
  C 1598.03 276.94 1640.15 244.46 1682.94 244.06
  A 0.40 0.38 -82.9 0 1 1683.31 244.55
  Q 1682.56 247.52 1683.15 250.52
  A 0.42 0.41 -5.9 0 1 1682.75 251.01
  C 1648.07 252.04 1633.94 280.11 1632.50 310.75
  C 1630.91 344.50 1644.11 383.72 1685.48 382.39
  C 1728.14 381.03 1739.02 336.69 1734.75 302.25
  C 1731.76 278.13 1720.04 258.47 1695.63 252.21
  A 0.51 0.51 24.3 0 1 1695.33 251.42
  Q 1697.08 248.93 1696.22 245.38
  A 0.41 0.41 87.1 0 1 1696.67 244.88
  C 1743.05 251.49 1778.66 294.15 1759.82 341.22
  C 1745.30 377.52 1706.14 394.85 1668.43 388.34
  Z"
/>
<path fill="#ffffff" d="
  M 721.69 316.56
  C 712.00 311.42 701.51 303.72 697.14 293.61
  C 689.81 276.60 698.14 258.32 714.25 250.00
  C 723.81 245.07 734.82 243.73 745.81 244.06
  C 768.15 244.73 785.12 253.96 792.57 275.94
  A 0.57 0.57 68.9 0 1 792.26 276.64
  L 781.13 281.47
  A 1.26 1.25 -22.0 0 1 779.44 280.76
  Q 768.48 251.38 737.00 253.57
  C 727.69 254.22 717.91 259.38 714.79 268.57
  C 710.78 280.38 720.67 289.23 729.65 294.62
  C 743.10 302.69 757.52 309.05 771.18 316.82
  C 783.07 323.58 794.65 333.01 796.18 347.31
  C 798.11 365.45 785.57 380.38 768.64 385.79
  C 739.56 395.07 704.32 389.76 692.17 357.47
  A 0.53 0.50 69.4 0 1 692.45 356.81
  L 704.40 351.98
  A 1.04 1.03 69.0 0 1 705.75 352.59
  C 714.49 376.03 738.92 386.95 762.00 377.00
  C 775.55 371.15 779.31 356.12 769.31 344.94
  Q 765.24 340.38 760.65 337.36
  C 748.45 329.32 735.73 324.01 721.69 316.56
  Z"
/>
<path fill="#ffffff" d="
  M 1551.44 341.55
  C 1528.57 321.88 1471.82 312.92 1481.07 273.33
  C 1487.38 246.35 1518.43 241.53 1541.24 245.07
  Q 1569.05 249.39 1577.85 275.78
  A 0.58 0.56 68.6 0 1 1577.56 276.48
  L 1566.56 281.51
  A 1.13 1.09 67.4 0 1 1565.07 280.86
  Q 1553.92 251.42 1522.50 253.50
  C 1513.14 254.12 1503.26 259.71 1500.16 268.64
  C 1494.20 285.82 1519.32 297.73 1532.00 303.75
  Q 1538.81 306.98 1553.08 314.61
  C 1568.72 322.97 1584.47 335.36 1581.55 355.36
  C 1576.76 388.07 1534.62 394.44 1509.19 386.90
  C 1493.68 382.31 1483.11 372.49 1477.61 357.41
  A 0.52 0.50 69.1 0 1 1477.89 356.75
  L 1489.64 352.08
  A 1.18 1.17 67.7 0 1 1491.15 352.72
  Q 1503.86 382.61 1536.00 380.25
  C 1557.21 378.69 1570.26 357.74 1551.44 341.55
  Z"
/>
<path fill="#ffffff" d="
  M 295.75 320.25
  C 296.57 289.77 286.51 257.28 252.18 251.61
  A 0.86 0.85 13.8 0 1 251.50 250.50
  Q 252.47 247.59 251.29 244.84
  A 0.32 0.32 -9.8 0 1 251.60 244.40
  C 293.90 247.44 330.88 281.50 324.12 326.20
  C 319.38 357.52 294.59 380.71 263.99 387.46
  C 223.20 396.46 179.24 376.88 166.25 335.75
  Q 164.04 328.74 163.57 320.14
  C 161.23 276.86 197.27 247.39 237.52 244.21
  A 0.90 0.90 7.9 0 1 238.44 245.42
  Q 237.52 247.89 238.44 250.58
  A 0.66 0.65 -12.7 0 1 237.89 251.44
  C 192.67 256.37 186.85 310.69 196.25 344.50
  C 202.90 368.39 222.27 384.31 247.69 382.44
  C 281.15 379.97 294.96 349.73 295.75 320.25
  Z"
/>
<path fill="#ffffff" d="
  M 1385.00 389.57
  C 1342.68 391.78 1300.52 363.26 1299.36 318.05
  C 1298.27 275.22 1334.63 246.49 1374.85 244.23
  A 0.68 0.68 -84.1 0 1 1375.54 245.08
  Q 1374.79 247.99 1375.54 250.70
  A 0.42 0.41 79.6 0 1 1375.18 251.23
  C 1333.38 254.66 1324.74 299.04 1329.50 332.50
  C 1333.57 361.13 1350.42 383.10 1381.75 382.36
  C 1426.44 381.32 1436.35 330.44 1429.75 296.25
  C 1425.39 273.69 1412.16 255.82 1388.46 251.70
  A 0.53 0.52 12.3 0 1 1388.04 251.06
  Q 1388.85 247.90 1388.45 245.18
  A 0.63 0.63 88.5 0 1 1389.13 244.46
  C 1434.16 248.86 1471.59 287.99 1458.00 335.00
  C 1448.61 367.48 1418.07 387.85 1385.00 389.57
  Z"
/>
<path fill="#ffffff" d="
  M 0.00 386.02
  L 0.00 247.44
  Q 36.12 246.84 60.75 247.50
  C 77.51 247.95 96.00 251.64 110.21 260.94
  C 149.20 286.47 148.85 342.79 112.31 369.74
  C 92.09 384.66 70.02 386.27 45.86 386.54
  Q 22.92 386.80 0.00 386.02
  Z
  M 54.56 258.07
  Q 40.78 257.61 25.65 257.76
  A 0.91 0.91 -0.3 0 0 24.75 258.67
  L 24.81 375.43
  A 0.51 0.51 0.0 0 0 25.32 375.94
  Q 37.91 376.05 50.50 376.00
  C 129.74 375.68 129.97 260.57 54.56 258.07
  Z"
/>
<path fill="#ffffff" d="
  M 373.97 252.04
  Q 419.03 299.85 464.59 348.25
  Q 465.69 349.41 465.69 347.82
  L 465.81 247.81
  A 0.51 0.50 -90.0 0 1 466.31 247.30
  L 476.06 247.27
  A 0.98 0.97 -89.4 0 1 477.03 248.27
  C 476.06 295.02 477.07 342.03 476.81 388.82
  A 0.68 0.68 81.3 0 1 476.34 389.47
  C 471.31 391.03 470.07 388.62 467.25 385.55
  Q 417.66 331.72 367.75 277.34
  Q 366.50 275.97 366.50 277.83
  L 366.50 385.68
  A 0.82 0.82 0.0 0 1 365.68 386.50
  L 355.91 386.50
  A 0.66 0.66 0.0 0 1 355.25 385.84
  L 355.25 247.75
  A 0.50 0.50 0.0 0 1 355.75 247.25
  L 368.69 247.30
  A 1.34 1.29 66.1 0 1 369.55 247.65
  Q 371.83 249.78 373.97 252.04
  Z"
/>
<path fill="#ffffff" d="
  M 1104.57 386.23
  Q 1105.52 377.45 1104.71 369.24
  L 1104.75 247.92
  A 0.67 0.67 0.1 0 1 1105.42 247.25
  L 1129.74 247.25
  A 0.83 0.82 -13.7 0 1 1130.47 247.69
  L 1187.07 353.71
  Q 1187.63 354.75 1188.18 353.70
  L 1243.69 247.85
  A 1.12 1.11 13.6 0 1 1244.68 247.25
  L 1268.15 247.25
  A 0.85 0.85 -89.9 0 1 1269.00 248.10
  L 1269.00 385.71
  A 0.77 0.76 -89.6 0 1 1268.23 386.48
  L 1244.68 386.33
  A 0.51 0.51 0.6 0 1 1244.18 385.82
  L 1244.00 274.15
  Q 1244.00 271.13 1242.59 273.80
  Q 1213.32 329.46 1183.94 385.44
  C 1183.18 386.87 1180.86 386.71 1179.63 386.59
  Q 1178.02 386.45 1177.00 384.50
  Q 1167.48 366.29 1120.00 278.25
  Q 1118.33 275.16 1117.29 273.65
  A 0.69 0.55 57.7 0 0 1116.51 273.38
  C 1115.59 273.87 1116.00 374.98 1116.00 385.38
  A 1.14 1.07 -89.3 0 1 1114.90 386.52
  L 1104.57 386.23
  Z"
/>
<path fill="#ffffff" d="
  M 601.29 316.25
  Q 600.53 346.71 601.35 377.25
  L 677.93 377.32
  A 0.57 0.57 -0.0 0 1 678.50 377.89
  L 678.50 385.63
  A 0.87 0.87 0.0 0 1 677.63 386.50
  L 577.00 386.50
  A 0.50 0.50 0.0 0 1 576.50 386.00
  L 576.50 247.81
  A 0.56 0.56 89.8 0 1 577.06 247.25
  L 678.12 247.25
  A 0.38 0.37 0.0 0 1 678.50 247.62
  L 678.45 255.68
  A 0.51 0.51 0.0 0 1 677.94 256.19
  L 602.14 256.25
  A 0.64 0.64 0.0 0 0 601.50 256.89
  L 601.32 305.29
  A 0.71 0.69 90.0 0 0 602.01 306.00
  L 651.98 306.00
  A 0.72 0.71 -0.4 0 1 652.70 306.70
  L 652.75 314.38
  A 0.61 0.60 -0.5 0 1 652.15 314.98
  Q 626.78 315.48 602.31 315.06
  Q 601.28 315.05 601.29 316.25
  Z"
/>
<path fill="#ffffff" d="
  M 885.44 263.06
  C 874.89 256.31 861.83 257.69 849.85 257.75
  A 0.85 0.85 0.0 0 0 849.00 258.60
  L 849.00 385.81
  A 0.69 0.68 -90.0 0 1 848.32 386.50
  L 824.80 386.44
  A 0.58 0.56 86.6 0 1 824.24 385.93
  Q 824.00 383.88 824.00 379.50
  Q 824.00 314.12 824.00 248.12
  A 0.87 0.87 0.0 0 1 824.87 247.25
  Q 848.13 247.25 871.75 247.24
  C 898.57 247.23 930.31 260.95 924.81 293.81
  C 921.75 312.09 903.61 321.55 886.98 323.60
  Q 875.64 324.99 863.05 323.89
  A 0.86 0.73 -86.3 0 1 862.39 323.00
  L 862.65 317.57
  A 0.73 0.64 -86.0 0 1 863.35 316.87
  C 877.28 318.16 890.88 313.57 896.48 300.24
  C 902.04 286.99 897.60 270.84 885.44 263.06
  Z"
/>
<path fill="#ffffff" d="
  M 980.25 385.75
  C 964.30 380.78 950.32 367.49 945.96 350.76
  Q 944.52 345.21 944.43 334.60
  Q 944.08 291.60 944.25 247.86
  A 0.62 0.61 -89.5 0 1 944.86 247.25
  L 968.19 247.25
  A 0.81 0.81 89.9 0 1 969.00 248.06
  Q 969.00 292.50 968.94 335.75
  C 968.91 357.60 981.38 373.72 1001.99 379.01
  C 1025.46 385.04 1051.82 374.00 1058.25 349.12
  Q 1059.75 343.31 1059.75 329.25
  Q 1059.75 288.80 1059.75 247.81
  A 0.56 0.56 89.8 0 1 1060.31 247.25
  L 1070.19 247.25
  A 0.56 0.56 -89.8 0 1 1070.75 247.81
  Q 1070.75 288.86 1070.75 329.76
  Q 1070.75 344.36 1069.68 349.68
  C 1061.72 389.43 1011.18 395.39 980.25 385.75
  Z"
/>
<path fill="#ffffff" d="
  M 601.29 316.25
  L 601.35 377.25
  Q 600.53 346.71 601.29 316.25
  Z"
/>
<path fill="#ffffff" d="
  M 1546.36 477.88
  C 1552.96 455.72 1516.51 459.51 1515.04 438.67
  C 1514.00 424.00 1527.99 416.02 1540.98 420.06
  Q 1544.18 421.05 1547.50 421.44
  A 0.90 0.67 15.3 0 0 1548.32 421.12
  L 1549.39 419.28
  Q 1549.74 418.68 1549.97 418.53
  Q 1551.60 417.53 1551.50 419.75
  Q 1551.09 428.46 1551.66 434.19
  C 1551.97 437.25 1549.76 437.40 1549.18 434.46
  Q 1548.05 428.65 1543.67 424.58
  C 1537.40 418.77 1525.96 419.61 1523.81 429.06
  C 1522.38 435.35 1524.86 440.18 1530.26 443.67
  C 1537.64 448.44 1547.13 450.83 1552.86 457.99
  C 1558.20 464.66 1557.55 473.88 1551.94 480.19
  C 1542.88 490.36 1530.19 489.27 1518.42 484.55
  A 1.59 1.46 20.5 0 0 1516.38 485.38
  L 1515.70 487.33
  A 0.89 0.72 -81.5 0 1 1515.07 487.91
  Q 1513.02 488.16 1513.39 485.49
  Q 1514.58 477.02 1514.10 468.49
  Q 1513.92 465.37 1516.04 466.77
  A 1.19 1.00 -80.2 0 1 1516.50 467.56
  C 1518.06 478.90 1523.83 487.70 1536.75 486.00
  C 1541.69 485.35 1544.92 482.74 1546.36 477.88
  Z"
/>
<path fill="#ffffff" d="
  M 1189.67 434.58
  C 1188.34 427.06 1185.52 421.88 1177.42 421.36
  Q 1168.20 420.76 1158.83 420.75
  A 1.11 1.08 89.7 0 0 1157.75 421.87
  L 1157.82 449.94
  A 0.55 0.54 -88.3 0 0 1158.32 450.48
  Q 1166.09 451.04 1173.27 449.29
  A 3.17 3.17 -85.4 0 0 1175.43 447.45
  Q 1177.27 443.14 1177.71 438.50
  A 1.04 0.91 79.9 0 1 1178.17 437.73
  Q 1180.09 436.61 1179.98 439.19
  Q 1179.44 452.34 1179.98 465.50
  A 0.83 0.71 78.3 0 1 1179.57 466.25
  C 1177.26 467.32 1177.26 462.65 1177.03 461.50
  C 1176.39 458.36 1176.34 455.65 1173.37 453.82
  C 1170.16 451.85 1162.72 452.35 1158.78 452.32
  A 0.76 0.75 0.4 0 0 1158.01 453.07
  L 1157.94 485.56
  A 0.52 0.52 2.3 0 0 1158.43 486.09
  Q 1173.85 486.86 1184.50 485.25
  C 1189.51 484.50 1191.70 476.51 1191.80 471.90
  C 1191.83 470.77 1192.55 469.02 1193.89 470.15
  A 1.17 0.93 -73.6 0 1 1194.24 471.01
  L 1194.00 487.48
  A 0.53 0.53 -89.4 0 1 1193.47 488.00
  L 1140.07 487.94
  A 0.82 0.68 -8.7 0 1 1139.34 487.50
  C 1138.85 486.19 1144.67 486.22 1145.56 485.96
  Q 1147.50 485.38 1147.50 483.35
  L 1147.50 422.74
  A 1.51 1.50 -87.5 0 0 1146.13 421.24
  Q 1143.53 421.00 1140.84 420.79
  C 1138.62 420.62 1139.13 419.00 1141.05 419.00
  Q 1165.16 419.00 1189.99 419.00
  A 1.29 1.23 87.5 0 1 1191.22 420.18
  L 1192.44 435.50
  A 1.58 1.07 68.7 0 1 1192.23 436.42
  C 1190.61 438.75 1189.87 435.72 1189.67 434.58
  Z"
/>
<path fill="#ffffff" d="
  M 1480.75 445.71
  L 1486.00 445.71
  Q 1488.60 445.06 1488.51 446.69
  A 0.62 0.52 -1.4 0 1 1487.94 447.19
  L 1480.43 447.79
  A 2.32 2.14 -87.0 0 0 1478.47 449.70
  Q 1476.39 461.79 1469.64 472.94
  A 0.84 0.84 0.0 0 0 1469.64 473.82
  C 1472.07 477.82 1474.48 483.98 1479.49 484.79
  Q 1483.35 485.41 1487.25 485.71
  A 1.22 1.08 -14.5 0 1 1488.08 486.13
  C 1490.81 489.63 1478.62 487.42 1477.75 487.25
  Q 1473.35 486.37 1467.48 487.87
  A 0.67 0.62 -20.8 0 1 1466.73 487.57
  L 1463.37 481.17
  A 0.59 0.56 58.3 0 0 1462.52 480.94
  Q 1447.29 492.31 1429.44 485.81
  C 1421.82 483.04 1417.75 475.02 1418.75 467.14
  C 1419.89 458.14 1427.78 451.92 1435.67 448.55
  A 0.66 0.66 -35.2 0 0 1435.86 447.46
  C 1432.49 444.35 1428.73 441.14 1427.77 436.66
  C 1423.58 417.10 1456.29 412.50 1460.58 428.75
  C 1462.90 437.52 1454.79 443.34 1447.84 445.97
  A 0.76 0.76 58.0 0 0 1447.56 447.20
  Q 1457.79 458.04 1467.20 470.07
  A 0.51 0.51 43.6 0 0 1468.03 470.05
  Q 1474.13 461.19 1474.77 449.96
  Q 1474.89 447.85 1472.77 447.72
  L 1465.25 447.28
  A 1.33 0.82 -9.6 0 1 1464.37 446.92
  Q 1464.01 446.50 1464.37 446.08
  A 1.25 0.79 11.8 0 1 1465.25 445.75
  L 1480.75 445.71
  Z
  M 1445.09 444.03
  A 1.29 1.28 -40.0 0 0 1446.45 444.14
  C 1457.22 438.63 1453.67 416.03 1439.72 421.85
  C 1433.79 424.33 1433.60 430.66 1436.81 435.59
  Q 1439.74 440.08 1445.09 444.03
  Z
  M 1428.62 466.25
  C 1429.00 484.80 1448.78 489.87 1461.10 478.27
  A 0.72 0.72 -39.2 0 0 1461.20 477.33
  Q 1450.78 462.77 1438.62 450.38
  A 1.37 1.37 49.4 0 0 1436.82 450.24
  Q 1428.42 456.55 1428.62 466.25
  Z"
/>
<path fill="#ffffff" d="
  M 1346.21 447.19
  C 1346.61 458.81 1345.82 471.00 1346.75 481.00
  C 1347.34 487.32 1356.25 483.68 1358.94 481.39
  A 1.49 0.85 -53.2 0 1 1359.81 481.01
  C 1360.86 481.04 1360.61 482.27 1360.07 482.82
  Q 1352.42 490.57 1342.00 487.25
  Q 1337.54 485.83 1337.42 480.50
  Q 1337.11 466.27 1337.23 452.03
  C 1337.27 447.17 1337.91 445.74 1332.11 446.80
  A 1.61 1.61 77.7 0 1 1330.26 445.61
  Q 1330.04 444.76 1331.72 444.55
  Q 1339.27 443.60 1343.67 437.47
  Q 1345.69 434.64 1345.96 438.09
  L 1346.41 443.81
  A 0.60 0.56 89.8 0 0 1346.92 444.36
  Q 1352.11 444.85 1357.27 444.08
  A 1.05 0.87 -23.2 0 1 1358.12 444.33
  C 1360.85 447.18 1347.42 446.65 1346.69 446.67
  A 0.50 0.50 0.0 0 0 1346.21 447.19
  Z"
/>
<path fill="#ffffff" d="
  M 1365.44 462.38
  C 1361.53 456.93 1364.00 449.73 1369.13 446.17
  C 1373.67 443.00 1379.49 443.79 1384.88 445.00
  A 2.07 2.06 -71.0 0 0 1387.21 443.86
  Q 1387.57 443.09 1388.38 442.59
  A 0.76 0.73 73.4 0 1 1389.50 443.23
  L 1389.94 454.76
  A 1.57 0.82 74.7 0 1 1389.74 455.68
  Q 1388.85 456.97 1388.28 454.88
  Q 1386.24 447.50 1379.44 446.06
  C 1374.61 445.04 1367.61 448.32 1369.24 454.07
  C 1371.21 461.01 1386.26 461.81 1391.32 468.29
  Q 1394.09 471.84 1393.25 476.50
  C 1391.21 487.79 1378.98 490.30 1369.76 485.98
  Q 1366.99 484.68 1365.44 487.19
  Q 1363.50 490.32 1363.50 486.50
  Q 1363.50 480.87 1363.53 475.25
  Q 1363.55 472.36 1365.13 474.18
  A 1.97 1.38 -78.6 0 1 1365.51 475.05
  Q 1366.61 482.12 1372.94 485.06
  C 1377.92 487.38 1387.08 486.61 1387.17 479.17
  C 1387.29 469.21 1370.94 470.06 1365.44 462.38
  Z"
/>
<path fill="#ffffff" d="
  M 1746.38 485.79
  A 2.51 2.49 -56.8 0 0 1743.93 486.31
  Q 1741.10 488.88 1741.06 486.50
  C 1741.02 484.28 1740.42 475.63 1741.29 474.11
  Q 1742.14 472.63 1742.61 474.73
  Q 1744.84 484.86 1755.00 486.25
  C 1766.10 487.77 1768.43 474.14 1757.59 470.61
  C 1751.21 468.54 1742.93 466.07 1741.25 458.75
  Q 1740.04 453.46 1744.01 448.75
  C 1749.07 442.74 1755.71 443.46 1762.60 445.02
  A 1.84 1.83 23.1 0 0 1764.55 444.24
  C 1765.29 443.10 1767.05 440.72 1766.97 444.14
  Q 1766.86 449.13 1767.42 454.08
  C 1767.73 456.85 1766.11 456.87 1765.31 454.39
  C 1759.45 436.20 1735.69 451.62 1752.42 459.45
  C 1758.96 462.51 1767.99 463.88 1770.38 471.83
  C 1771.97 477.12 1769.35 482.19 1765.02 485.34
  C 1758.96 489.74 1753.13 488.01 1746.38 485.79
  Z"
/>
<path fill="#ffffff" d="
  M 1248.72 459.30
  C 1246.90 469.80 1249.55 485.28 1263.25 485.40
  C 1269.62 485.46 1271.78 481.65 1274.89 477.04
  C 1276.62 474.47 1277.47 476.27 1276.48 478.34
  C 1272.87 485.86 1266.38 488.73 1258.11 487.92
  C 1230.13 485.19 1233.48 441.72 1261.75 444.02
  C 1269.20 444.63 1275.95 449.18 1276.77 456.98
  A 0.88 0.87 85.7 0 1 1275.94 457.95
  C 1266.92 458.40 1257.97 457.59 1249.31 458.75
  A 0.68 0.68 1.7 0 0 1248.72 459.30
  Z
  M 1252.25 456.46
  L 1265.78 456.34
  C 1270.61 457.71 1266.10 448.97 1264.86 447.91
  C 1259.62 443.43 1252.37 446.51 1250.24 452.71
  C 1249.59 454.59 1247.74 457.41 1252.25 456.46
  Z"
/>
<path fill="#ffffff" d="
  M 1287.26 449.38
  Q 1284.91 448.93 1281.66 448.77
  C 1280.45 448.71 1280.37 447.55 1281.60 447.48
  Q 1287.04 447.15 1292.24 445.63
  C 1294.98 444.83 1298.18 441.62 1297.18 448.47
  Q 1297.00 449.74 1297.95 448.88
  C 1306.54 441.21 1322.94 441.31 1323.21 456.25
  Q 1323.47 470.79 1323.68 485.32
  A 0.67 0.66 -83.0 0 0 1324.17 485.95
  C 1325.38 486.29 1330.54 486.10 1329.11 487.65
  A 1.21 1.04 18.3 0 1 1328.26 488.00
  Q 1318.76 488.00 1309.26 488.00
  C 1308.66 488.00 1306.59 487.79 1308.07 486.76
  Q 1308.32 486.59 1309.00 486.53
  L 1314.01 486.12
  A 0.65 0.55 89.2 0 0 1314.52 485.50
  C 1314.81 478.68 1316.39 454.12 1312.83 449.22
  C 1308.85 443.71 1298.88 447.58 1297.63 453.55
  Q 1297.51 454.13 1297.45 462.98
  Q 1297.39 474.39 1297.73 485.37
  A 1.30 1.30 -2.2 0 0 1299.09 486.63
  Q 1303.96 486.39 1303.08 487.64
  A 1.08 0.79 12.3 0 1 1302.26 488.00
  L 1283.26 488.00
  A 1.15 0.89 -14.2 0 1 1282.41 487.63
  C 1281.22 486.08 1286.65 486.34 1286.97 486.28
  Q 1288.75 485.93 1288.75 484.12
  L 1288.75 451.19
  A 1.84 1.84 -84.5 0 0 1287.26 449.38
  Z"
/>
<path fill="#ffffff" d="
  M 1566.73 449.62
  C 1565.71 449.24 1559.21 449.18 1559.96 447.90
  A 1.03 0.83 11.3 0 1 1560.75 447.49
  Q 1567.37 447.28 1573.33 444.41
  Q 1575.65 443.29 1575.78 446.84
  Q 1575.84 448.50 1577.03 447.34
  Q 1580.94 443.53 1586.51 443.87
  Q 1604.63 444.95 1606.64 463.01
  C 1608.41 478.91 1594.66 494.10 1578.59 485.96
  C 1576.47 484.89 1576.57 483.23 1576.49 487.09
  Q 1576.27 497.70 1576.44 508.48
  A 0.79 0.79 5.0 0 0 1577.08 509.24
  C 1578.48 509.52 1583.86 509.39 1584.34 510.70
  A 0.40 0.36 -9.2 0 1 1583.95 511.19
  C 1576.48 511.26 1568.89 510.98 1561.44 511.29
  Q 1559.44 511.38 1560.64 510.10
  A 1.20 0.99 19.1 0 1 1561.50 509.78
  Q 1564.26 509.90 1566.85 508.98
  A 0.84 0.79 85.1 0 0 1567.38 508.31
  Q 1567.85 504.47 1567.75 498.50
  Q 1567.45 480.00 1567.68 461.50
  Q 1567.75 455.89 1567.23 450.31
  A 0.82 0.76 -82.9 0 0 1566.73 449.62
  Z
  M 1576.68 476.98
  C 1577.00 488.03 1590.27 489.39 1594.56 480.06
  Q 1600.38 467.41 1595.59 454.36
  C 1594.06 450.20 1591.59 446.73 1587.25 446.00
  C 1580.66 444.88 1576.60 448.99 1576.51 455.33
  Q 1576.36 466.16 1576.68 476.98
  Z"
/>
<path fill="#ffffff" d="
  M 1635.37 482.69
  Q 1629.72 489.36 1621.50 488.00
  Q 1613.89 486.74 1613.50 479.75
  C 1612.93 469.51 1626.41 465.06 1634.54 464.19
  A 1.15 1.15 -2.0 0 0 1635.58 463.08
  C 1635.71 458.54 1635.98 451.85 1633.30 448.39
  C 1630.15 444.33 1620.39 445.23 1619.17 451.06
  A 0.93 0.92 -71.6 0 0 1619.68 452.09
  Q 1626.06 455.07 1622.32 459.63
  A 1.47 1.35 12.4 0 1 1621.51 460.10
  Q 1614.06 461.48 1613.67 455.75
  C 1612.82 443.37 1629.97 442.77 1637.50 445.00
  C 1642.62 446.52 1643.67 450.23 1643.92 455.44
  Q 1644.51 467.33 1644.28 479.25
  Q 1644.08 489.65 1651.69 483.19
  Q 1653.41 481.73 1653.65 483.19
  A 1.04 0.87 -29.4 0 1 1653.33 484.04
  C 1649.10 488.14 1637.29 491.29 1635.76 482.81
  Q 1635.68 482.33 1635.37 482.69
  Z
  M 1622.19 473.69
  C 1620.20 479.32 1624.89 486.25 1631.06 483.06
  C 1637.30 479.85 1635.42 472.07 1635.57 466.20
  A 0.50 0.50 84.2 0 0 1634.96 465.70
  C 1630.36 466.79 1623.92 468.78 1622.19 473.69
  Z"
/>
<path fill="#ffffff" d="
  M 1676.75 488.00
  C 1664.23 489.43 1654.00 480.26 1653.60 467.75
  C 1653.03 449.91 1670.26 438.00 1686.44 446.81
  C 1690.84 449.21 1694.45 458.20 1686.29 458.13
  C 1683.80 458.11 1681.90 457.26 1681.74 454.64
  C 1681.55 451.72 1685.51 448.83 1680.50 446.97
  C 1662.09 440.14 1661.69 465.62 1664.75 475.75
  C 1668.28 487.47 1680.32 488.49 1687.36 479.43
  C 1687.98 478.62 1689.34 477.32 1689.88 479.02
  A 1.12 0.96 -40.6 0 1 1689.74 479.92
  Q 1685.14 487.04 1676.75 488.00
  Z"
/>
<path fill="#ffffff" d="
  M 1704.98 460.08
  C 1704.23 466.73 1705.05 475.46 1709.11 480.64
  C 1713.69 486.50 1724.39 487.71 1729.00 480.50
  Q 1729.49 479.74 1732.02 476.21
  A 0.85 0.72 -64.5 0 1 1732.80 475.86
  C 1735.75 476.43 1729.57 483.26 1728.62 484.10
  C 1722.58 489.38 1712.46 489.23 1705.94 485.31
  C 1690.10 475.79 1691.95 450.10 1710.38 444.65
  C 1718.58 442.22 1732.68 446.05 1733.36 456.42
  A 1.78 1.75 -2.1 0 1 1731.60 458.28
  L 1706.68 458.50
  A 1.77 1.73 -87.2 0 0 1704.98 460.08
  Z
  M 1706.17 456.31
  L 1723.55 456.48
  A 0.97 0.95 88.6 0 0 1724.51 455.45
  C 1723.81 443.17 1709.28 442.76 1706.49 453.25
  Q 1706.13 454.63 1705.71 455.59
  A 0.52 0.51 -78.0 0 0 1706.17 456.31
  Z"
/>
<path fill="#ffffff" d="
  M 1194.75 444.71
  L 1197.00 444.71
  L 1208.75 444.71
  Q 1212.50 444.01 1215.70 445.76
  L 1210.65 446.55
  A 1.19 0.99 -13.6 0 0 1209.63 447.92
  L 1219.60 474.30
  Q 1219.96 475.25 1220.30 474.29
  L 1229.25 448.75
  Q 1230.13 446.23 1226.75 446.50
  Q 1223.26 446.78 1225.12 445.07
  A 1.34 1.19 21.8 0 1 1226.01 444.75
  L 1237.93 444.80
  A 1.15 1.04 -17.2 0 1 1238.77 445.19
  Q 1240.04 446.78 1237.50 446.50
  Q 1232.74 445.98 1231.49 449.75
  Q 1225.33 468.17 1218.71 486.44
  C 1218.02 488.33 1216.63 488.64 1215.83 486.59
  Q 1208.63 468.18 1201.10 449.92
  C 1199.02 444.89 1198.11 447.62 1194.42 446.33
  Q 1192.68 445.73 1194.75 444.71
  Z"
/>
<path fill="#d4cdc9" fill-opacity="0.439" d="
  M 1486.00 445.71
  L 1480.75 445.71
  Q 1483.35 444.65 1486.00 445.71
  Z"
/>
</svg>
